# xmcd
#
# Track frame offsets: 
#        150
#        37059
#        60259
#        83545
#        123431
#        142400
#        166895
#        200745
#        236050
#        264878
#
# Disc length: 3697 seconds
#
# Revision: 0
# Processed by: cddbd v1.5.2PL0 Copyright (c) Steve Scherf et al.
# Submitted via: ExactAudioCopy v1.0b1
#
DISCID=890e6f0a
DTITLE=Jesu - Ascension
DYEAR=2011
DGENRE=Rock
TTITLE0=Fools
TTITLE1=Birth Day
TTITLE2=Sedatives
TTITLE3=Broken Home
TTITLE4=Brave New World
TTITLE5=Black Lies
TTITLE6=Small Wonder
TTITLE7=December
TTITLE8=King Of Kings
TTITLE9=Ascension
EXTD=
EXTT0=
EXTT1=
EXTT2=
EXTT3=
EXTT4=
EXTT5=
EXTT6=
EXTT7=
EXTT8=
EXTT9=
PLAYORDER=
